<?xml version="1.0" encoding="UTF-8"?>
<svg id="Layer_1" data-name="Layer 1" xmlns="http://www.w3.org/2000/svg" viewBox="0 0 1590.24 872.64" width="1590.24" height="872.643">
  <g>
    <g>
      <path d="M776.47,563.11h-37.38c-.5,0-.75-.25-.75-.75l-.25-198.94c0-.67.25-1,.75-1h73.5c1,0,1.76.12,2.26.38s1.09.63,1.76,1.13l28.6,25.34c1,.67,1.51,1.84,1.51,3.51v100.6c0,1.17-.5,2.18-1.51,3.01l-30.1,26.34c-.5.5-1.17.75-2.01.75l-35.62-.25v39.14c0,.5-.25.75-.75.75ZM807.32,480.83v-78.52c0-1.5-.75-2.26-2.26-2.26h-27.85v82.79h28.1c1.34,0,2.01-.67,2.01-2.01Z" fill="#012169"/>
      <path d="M969.13,502.91l-12.29,14.8,28.1,45.16h-39.89c-.84,0-1.42-.33-1.76-1l-22.83-36.13h-14.3v35.87c0,.84-.34,1.25-1,1.25l-36.38.25c-.67,0-1-.42-1-1.25l-.25-196.93c0-.67.21-1.25.63-1.76.41-.5.96-.75,1.63-.75h68.49c2.67,0,5.18.92,7.53,2.76l23.08,23.08c2.67,2.51,4.01,5.35,4.01,8.53v97.84c0,3.51-1.25,6.27-3.76,8.28ZM935.01,401.81c-.84-.83-1.76-1.25-2.76-1.25l-25.84-.25v89.31l25.84-.25c1.17,0,2.09-.33,2.76-1,.83-.83,1.25-1.76,1.25-2.76v-80.78c0-1.17-.42-2.17-1.25-3.01Z" fill="#012169"/>
      <path d="M1092.07,563.11h-92.82c-.67,0-1.21-.21-1.63-.63-.42-.42-.63-.96-.63-1.63v-196.18c0-.67.21-1.21.63-1.63s.96-.63,1.63-.63h92.57c.83,0,1.25.34,1.25,1l-.25,35.12c0,.84-.42,1.25-1.25,1.25h-56.7v44.91h44.91c.83,0,1.25.42,1.25,1.25v35.87c0,.34-.12.63-.38.88s-.54.38-.88.38h-44.91v41.9h57.2c.83,0,1.25.42,1.25,1.25v35.87c0,.67-.42,1-1.25,1Z" fill="#012169"/>
      <path d="M1268.54,362.8c.42.42.63.88.63,1.38v197.18c0,.5-.17.92-.5,1.25s-.67.5-1,.5h-36.12c-1,0-1.51-.5-1.51-1.5l-.25-103.61-30.61,103.36c-.34.67-.84.92-1.5.75l-14.55-.25c-.67,0-1.09-.33-1.25-1l-29.6-100.6v101.1c0,.5-.17.92-.5,1.25s-.67.5-1,.5h-36.12c-.34,0-.67-.16-1-.5-.34-.33-.5-.67-.5-1l-.25-197.18c0-.5.16-.96.5-1.38.33-.41.83-.63,1.5-.63l36.88-.25c.83,0,1.67.29,2.51.88.83.59,1.34,1.3,1.5,2.13l34.37,119.16,35.87-119.16c1-1.84,2.34-2.76,4.01-2.76l37.13-.25c.5,0,.96.21,1.38.63Z" fill="#012169"/>
      <path d="M1332.37,563.11h-36.13c-1,0-1.5-.5-1.5-1.5l-.5-197.68c0-1,.5-1.5,1.5-1.5h36.63c1,0,1.5.5,1.5,1.5v197.68c0,1-.5,1.5-1.5,1.5Z" fill="#012169"/>
      <path d="M1454.02,563.11h-92.82c-.67,0-1.21-.21-1.63-.63-.42-.42-.63-.96-.63-1.63v-196.18c0-.67.21-1.21.63-1.63s.96-.63,1.63-.63h92.57c.83,0,1.25.34,1.25,1l-.25,35.12c0,.84-.42,1.25-1.25,1.25h-56.7v44.91h44.91c.83,0,1.25.42,1.25,1.25v35.87c0,.34-.12.63-.38.88s-.54.38-.88.38h-44.91v41.9h57.2c.83,0,1.25.42,1.25,1.25v35.87c0,.67-.42,1-1.25,1Z" fill="#012169"/>
      <path d="M1574.44,502.91l-12.29,14.8,28.1,45.16h-39.89c-.84,0-1.42-.33-1.76-1l-22.83-36.13h-14.3v35.87c0,.84-.34,1.25-1,1.25l-36.38.25c-.67,0-1-.42-1-1.25l-.25-196.93c0-.67.21-1.25.63-1.76.41-.5.96-.75,1.63-.75h68.49c2.67,0,5.18.92,7.53,2.76l23.08,23.08c2.67,2.51,4.01,5.35,4.01,8.53v97.84c0,3.51-1.25,6.27-3.76,8.28ZM1540.32,401.81c-.84-.83-1.76-1.25-2.76-1.25l-25.84-.25v89.31l25.84-.25c1.17,0,2.09-.33,2.76-1,.83-.83,1.25-1.76,1.25-2.76v-80.78c0-1.17-.42-2.17-1.25-3.01Z" fill="#012169"/>
    </g>
    <g>
      <path d="M804.56,755.53v-40.64c0-.67.21-1.21.63-1.63s.96-.63,1.63-.63h31.86c.5,0,.96.21,1.38.63.42.42.63.96.63,1.63l-.25,76.77c0,.67-.21,1.21-.63,1.63s-.96.63-1.63.63h-97.59c-.67,0-1.25-.21-1.76-.63-.5-.42-.75-.96-.75-1.63v-196.18c0-.67.21-1.21.63-1.63s.96-.63,1.63-.63h33.62c.67,0,1.21.21,1.63.63.41.42.63.96.63,1.63l-.25,160.05c0,.5.33.75,1,.75h26.84c.5,0,.75-.25.75-.75Z" fill="#012169"/>
      <path d="M956.33,793.91h-92.82c-.67,0-1.21-.21-1.63-.63-.42-.42-.63-.96-.63-1.63v-196.18c0-.67.21-1.21.63-1.63s.96-.63,1.63-.63h92.57c.83,0,1.25.34,1.25,1l-.25,35.12c0,.84-.42,1.25-1.25,1.25h-56.7v44.91h44.91c.83,0,1.25.42,1.25,1.25v35.87c0,.34-.12.63-.38.88s-.54.38-.88.38h-44.91v41.9h57.2c.83,0,1.25.42,1.25,1.25v35.87c0,.67-.42,1-1.25,1Z" fill="#012169"/>
      <path d="M1006.5,592.97l62.47.25c.67,0,1.25.21,1.76.63.5.42.83.96,1,1.63l30.86,196.68c0,.5-.17.92-.5,1.25-.34.34-.67.5-1,.5h-35.87c-.84,0-1.42-.5-1.76-1.5l-5.52-30.86h-39.89l-4.01,30.61c0,.34-.17.67-.5,1s-.67.5-1,.5h-37.63l-1.5-1.76,30.36-196.43c.33-1.67,1.25-2.51,2.76-2.51ZM1052.91,727.43l-13.05-94.83h-3.76l-13.05,94.83h29.85Z" fill="#012169"/>
      <path d="M1149.48,593.22h45.41c1.34,0,2.42.42,3.26,1.25l28.6,25.09c1.34,1.34,2.01,2.85,2.01,4.52v36.63c0,.34-.17.67-.5,1-.34.34-.67.5-1,.5h-34.37c-.34,0-.67-.16-1-.5-.34-.33-.5-.67-.5-1v-28.35c0-.33-.17-.67-.5-1-.34-.33-.67-.5-1-.5h-35.37c-1,0-1.51.5-1.51,1.5v122.17c0,1.17.5,1.76,1.51,1.76h35.37c.33,0,.67-.16,1-.5s.5-.75.5-1.25v-38.38h-11.79c-.5,0-.96-.21-1.38-.63-.42-.42-.63-.96-.63-1.63v-31.61c0-.5.21-.96.63-1.38.41-.42.88-.63,1.38-.63h46.66c.67,0,1.25.21,1.76.63.5.42.75.96.75,1.63v80.28c0,1.84-.67,3.26-2.01,4.26l-29.35,25.59c-1.17.84-2.26,1.25-3.26,1.25h-43.4c-1.5,0-3.01-.58-4.51-1.76l-28.35-24.84c-1.67-1.51-2.51-3.34-2.51-5.52v-137.22c0-2.34.83-4.26,2.51-5.77l27.09-24.08c1.34-1,2.84-1.5,4.52-1.5Z" fill="#012169"/>
      <path d="M1327.33,755.03v-159.3c0-.67.21-1.25.63-1.76.42-.5.96-.75,1.63-.75h32.86c.67,0,1.25.25,1.76.75.5.5.75,1.09.75,1.76v167.58c0,1.84-.67,3.26-2.01,4.26l-28.6,25.34c-.17.17-.5.38-1,.63s-1,.38-1.5.38h-47.16c-1,0-1.84-.33-2.51-1l-28.85-25.59c-1.34-1-2.01-2.42-2.01-4.26v-167.33c0-1.67.83-2.51,2.51-2.51h34.37c.67,0,1.21.25,1.63.75.42.5.63,1.09.63,1.76v159.3c0,.84.5,1.25,1.5,1.25h33.87c1,0,1.5-.42,1.5-1.25Z" fill="#012169"/>
      <path d="M1483.6,793.91h-92.82c-.67,0-1.21-.21-1.63-.63-.42-.42-.63-.96-.63-1.63v-196.18c0-.67.21-1.21.63-1.63s.96-.63,1.63-.63h92.57c.83,0,1.25.34,1.25,1l-.25,35.12c0,.84-.42,1.25-1.25,1.25h-56.7v44.91h44.91c.83,0,1.25.42,1.25,1.25v35.87c0,.34-.12.63-.38.88s-.54.38-.88.38h-44.91v41.9h57.2c.83,0,1.25.42,1.25,1.25v35.87c0,.67-.42,1-1.25,1Z" fill="#012169"/>
    </g>
    <g>
      <path d="M851.1,162.52v139.05c0,1.84-.67,3.26-2.01,4.27l-29.87,25.85c-.5.5-1.25.75-2.26.75h-43.92c-1,0-1.76-.25-2.26-.75l-30.12-26.1c-1.17-1-1.76-2.42-1.76-4.27v-139.05c0-1.84.58-3.26,1.76-4.27l29.12-25.6c.33-.5.92-.75,1.76-.75h46.69c.67,0,1.25.25,1.76.75l29.12,25.85c1.34,1,2.01,2.43,2.01,4.27ZM811.94,169.92c-.5-.42-1.09-.63-1.76-.63h-30.12c-.67,0-1.25.21-1.76.63-.5.42-.75.96-.75,1.63v120.98c0,.67.25,1.22.75,1.63.5.42,1.09.63,1.76.63h30.12c.67,0,1.25-.21,1.76-.63.5-.42.75-.96.75-1.63v-120.98c0-.67-.25-1.21-.75-1.63Z" fill="#012169"/>
      <path d="M906.81,332.45h-32.88c-1.51,0-2.26-.67-2.26-2.01v-196.78c0-.5.21-.96.63-1.38.42-.42.96-.63,1.63-.63h31.63c2.17,0,3.68,1,4.52,3.01l47.19,109.69v-110.69c0-.5.17-.96.5-1.38.33-.42.75-.63,1.25-.63h33.63c.5,0,.96.21,1.38.63.42.42.63.88.63,1.38l-.25,196.53c0,.67-.21,1.22-.63,1.63-.42.42-.96.63-1.63.63h-32.88c-1,0-1.76-.42-2.26-1.25l-47.94-112.7v111.95c0,1.34-.75,2.01-2.26,2.01Z" fill="#012169"/>
      <path d="M1112.63,133.15v36.65c0,1-.5,1.51-1.51,1.51h-28.87v159.64c0,1-.5,1.51-1.51,1.51h-36.14c-1,0-1.51-.5-1.51-1.51l-.5-159.64h-28.87c-1,0-1.51-.5-1.51-1.51v-36.65c0-1,.5-1.51,1.51-1.51h97.39c1,0,1.51.5,1.51,1.51Z" fill="#012169"/>
      <path d="M1143.75,131.39l62.5.25c.67,0,1.25.21,1.76.63.5.42.84.96,1,1.63l30.87,196.78c0,.5-.17.92-.5,1.25-.34.34-.67.5-1,.5h-35.89c-.84,0-1.42-.5-1.76-1.51l-5.52-30.87h-39.91l-4.02,30.62c0,.34-.17.67-.5,1-.34.34-.67.5-1,.5h-37.65l-1.51-1.76,30.37-196.53c.33-1.67,1.25-2.51,2.76-2.51ZM1190.18,265.93l-13.05-94.88h-3.76l-13.05,94.88h29.87Z" fill="#012169"/>
      <path d="M1357.35,272.21l-12.3,14.81,28.11,45.18h-39.91c-.84,0-1.42-.33-1.76-1l-22.84-36.14h-14.31v35.89c0,.84-.34,1.25-1,1.25l-36.39.25c-.67,0-1-.42-1-1.25l-.25-197.04c0-.67.21-1.25.63-1.76.42-.5.96-.75,1.63-.75h68.52c2.67,0,5.19.92,7.53,2.76l23.09,23.09c2.67,2.51,4.02,5.36,4.02,8.53v97.89c0,3.51-1.25,6.27-3.77,8.28ZM1323.21,171.05c-.84-.84-1.76-1.25-2.76-1.25l-25.85-.25v89.36l25.85-.25c1.17,0,2.09-.33,2.76-1,.84-.84,1.25-1.76,1.25-2.76v-80.82c0-1.17-.42-2.17-1.25-3.01Z" fill="#012169"/>
      <path d="M1423.85,332.45h-36.14c-1,0-1.51-.5-1.51-1.51l-.5-197.79c0-1,.5-1.51,1.51-1.51h36.65c1,0,1.51.5,1.51,1.51v197.79c0,1-.5,1.51-1.51,1.51Z" fill="#012169"/>
      <path d="M1561.63,162.52v139.05c0,1.84-.67,3.26-2.01,4.27l-29.87,25.85c-.5.5-1.25.75-2.26.75h-43.92c-1,0-1.76-.25-2.26-.75l-30.12-26.1c-1.17-1-1.76-2.42-1.76-4.27v-139.05c0-1.84.58-3.26,1.76-4.27l29.12-25.6c.33-.5.92-.75,1.76-.75h46.69c.67,0,1.25.25,1.76.75l29.12,25.85c1.34,1,2.01,2.43,2.01,4.27ZM1522.47,169.92c-.5-.42-1.09-.63-1.76-.63h-30.12c-.67,0-1.25.21-1.76.63-.5.42-.75.96-.75,1.63v120.98c0,.67.25,1.22.75,1.63.5.42,1.09.63,1.76.63h30.12c.67,0,1.25-.21,1.76-.63.5-.42.75-.96.75-1.63v-120.98c0-.67-.25-1.21-.75-1.63Z" fill="#012169"/>
    </g>
  </g>
  <g>
    <path d="M327.5,858.71c-28.4-8.22-56.08-19.55-82.26-33.66-25.77-13.89-50.31-30.6-72.96-49.67-22.5-18.95-43.27-40.35-61.75-63.63-18.55-23.37-34.91-48.78-48.63-75.53-16.66-32.5-29.45-67.26-38.01-103.31-8.5-35.78-12.81-72.75-12.82-109.88l-.08-287.78L330.37,10.63l320.45,125.38-.06,285.35c0,44.63-6.24,88.88-18.54,131.51-12.06,41.82-29.78,81.55-52.67,118.08-22.91,36.56-50.65,69.37-82.45,97.5-32.47,28.73-68.77,52.22-107.9,69.81-18.01,8.1-36.71,14.98-55.59,20.45l-3.06.89-3.05-.88Z" fill="#ee2737"/>
    <g>
      <g>
        <path d="M636.16,145.26c.53.21.88.72.88,1.29l-.06,276.09c-.02,85.91-23.8,169.26-68.78,241.04-45.08,71.94-108.73,127.88-184.07,161.77-17.25,7.76-35.17,14.36-53.26,19.63-54.83-15.96-105.17-43.03-149.62-80.46-44.06-37.11-79.96-82.36-106.69-134.51-32.08-62.57-49.04-133.74-49.06-205.81l-.07-278.14c0-.79.48-1.5,1.22-1.79L329.78,26.5c.59-.23,1.24-.23,1.83,0l304.55,118.76ZM329.54.22L2.32,127.9C.92,128.44,0,129.79,0,131.3l.08,293.01c0,38,4.42,75.84,13.12,112.48,8.77,36.94,21.87,72.55,38.95,105.86,14.05,27.41,30.82,53.45,49.83,77.4,18.94,23.86,40.25,45.81,63.32,65.24,23.23,19.56,48.42,36.72,74.88,50.98,26.89,14.5,55.32,26.13,84.48,34.57l6.23,1.8,6.23-1.8c19.39-5.61,38.6-12.68,57.09-21,40.16-18.07,77.43-42.18,110.75-71.66,32.61-28.85,61.06-62.49,84.54-99.97,23.45-37.42,41.6-78.11,53.95-120.95,12.59-43.65,18.97-88.95,18.98-134.63l.06-290.21c0-1.72-1.06-3.27-2.66-3.9L331.87.22c-.75-.29-1.58-.29-2.33,0Z" fill="#012169"/>
        <path d="M557.41,579.14l-29.34-14.95,14.31-65.88-60.78,17.73-21.3-28.96-65.43,74.48,30.15-122.92-49.29,10.08-43.96-59.52-.66-.93-.67.93-43.96,59.52-49.29-10.08,30.15,122.92-65.43-74.48-21.3,28.96-60.78-17.73,14.31,65.88-29.34,14.95,131.76,103.96-17.7,48.92s91.09-31.66,103.31-35.83l-5.18-89.93-72.95,54.32c-1.24-1.45-.04-3.08-.04-3.08l87.12-108.33v-.08l.03.04.03-.04v.08l87.12,108.33s1.2,1.63-.04,3.08l-72.95-54.32-14.57,182.47s8.1-3.16,8.1-3.16l41.9-75.35,62.33,21.56-17.47-48.69,131.76-103.96Z" fill="#012169"/>
      </g>
      <g>
        <path d="M225.84,158.99l-35.24-19.28c-1.18-.67-2.59-.76-3.85-.26l-81.87,31.86c-.78.3-1.45.82-1.94,1.5l-26.84,36.88c-.66.91-1.01,2-1.01,3.11v180.44c0,.96.46,1.86,1.23,2.43l33.92,25.11c.66.49,1.53.61,2.3.31l83.46-32.2c1.73-.66,3.25-1.8,4.37-3.27l24.41-31.83c1.31-1.72,2.02-3.82,2.02-5.98v-47.11c.06-.19.09-.4.09-.61v-139.31c0-.74-.4-1.43-1.05-1.79ZM175.11,334.5c0,.45-.12.88-.35,1.27l-1.92,3.2c-.23.39-.59.69-1.02.86l-40.51,15.71c-.43.17-.92.12-1.32-.12l-2.6-1.61c-.33-.21-.54-.57-.54-.96v-133.36c0-.26.08-.52.23-.73l2.07-2.97c.29-.42.7-.74,1.18-.93l40.23-15.75c.42-.16.89-.11,1.27.13l2.81,1.84c.28.19.46.5.46.84v132.57Z" fill="#012169"/>
        <path d="M408.32,113.46l-76.4-29.67c-.81-.31-1.71-.31-2.52,0l-66.47,25.85c-1.24.48-2.06,1.66-2.06,2.98l.13,268.73c0,1.85,1.87,3.13,3.61,2.46l45.61-17.74c1.54-.59,2.56-2.07,2.56-3.71v-38.55l93.52-36.18c4.67-1.81,7.74-6.28,7.74-11.25V122.63c0-4.26-1.72-7.63-5.73-9.17ZM361.63,246.54c0,1.64-1.01,3.1-2.55,3.69l-46.07,17.65.05-138.23,46.02,14.95c1.53.59,2.54,2.05,2.54,3.69v98.25Z" fill="#012169"/>
        <path d="M587,292.69l-45.03-16.77c-.78-.29-1.62.28-1.62,1.11v83.44l-40.72-16.63v-193.27c0-.72-.44-1.36-1.11-1.62l-48.94-19.13c-.83-.32-1.72.28-1.72,1.17v247.84c0,1.96,1.21,3.72,3.06,4.43l133.5,52.08c1.76.67,3.64-.61,3.64-2.48v-138.65c0-.67-.42-1.27-1.05-1.51Z" fill="#012169"/>
      </g>
    </g>
  </g>
</svg>